<svg xmlns="http://www.w3.org/2000/svg" version="1.1" xmlns:xlink="http://www.w3.org/1999/xlink" xmlns:svgjs="http://svgjs.dev/svgjs" viewBox="0 0 800 800" width="800" height="800"><g stroke-width="3.75" stroke="hsla(31, 89%, 39%, 1.00)" fill="none"><circle r="7.631578947368421" cx="0" cy="0" fill="hsla(31, 89%, 39%, 1.00)" stroke="none"></circle><circle r="7.631578947368421" cx="88.88888888888889" cy="0" fill="hsla(31, 74%, 59%, 1.00)" stroke="none"></circle><circle r="7.631578947368421" cx="177.77777777777777" cy="0" fill="hsla(31, 89%, 39%, 1.00)" stroke="none"></circle><circle r="7.631578947368421" cx="266.66666666666663" cy="0" fill="hsla(31, 74%, 59%, 1.00)" stroke="none"></circle><circle r="7.631578947368421" cx="355.55555555555554" cy="0" fill="hsla(31, 89%, 39%, 1.00)" stroke="none"></circle><circle r="7.631578947368421" cx="444.44444444444446" cy="0" fill="hsla(31, 74%, 59%, 1.00)" stroke="none"></circle><circle r="7.631578947368421" cx="533.3333333333334" cy="0" fill="hsla(31, 89%, 39%, 1.00)" stroke="none"></circle><circle r="7.631578947368421" cx="622.2222222222223" cy="0" fill="hsla(31, 74%, 59%, 1.00)" stroke="none"></circle><circle r="7.631578947368421" cx="711.1111111111112" cy="0" fill="hsla(31, 89%, 39%, 1.00)" stroke="none"></circle><circle r="7.631578947368421" cx="800.0000000000001" cy="0" fill="hsla(31, 74%, 59%, 1.00)" stroke="none"></circle><circle r="7.631578947368421" cx="0" cy="80" fill="hsla(31, 89%, 39%, 1.00)" stroke="none"></circle><circle r="7.631578947368421" cx="88.88888888888889" cy="80" fill="hsla(31, 74%, 59%, 1.00)" stroke="none"></circle><circle r="7.631578947368421" cx="177.77777777777777" cy="80" fill="hsla(31, 89%, 39%, 1.00)" stroke="none"></circle><circle r="7.631578947368421" cx="266.66666666666663" cy="80" fill="hsla(31, 74%, 59%, 1.00)" stroke="none"></circle><circle r="7.631578947368421" cx="355.55555555555554" cy="80" fill="hsla(31, 89%, 39%, 1.00)" stroke="none"></circle><circle r="7.631578947368421" cx="444.44444444444446" cy="80" fill="hsla(31, 74%, 59%, 1.00)" stroke="none"></circle><circle r="7.631578947368421" cx="533.3333333333334" cy="80" fill="hsla(31, 89%, 39%, 1.00)" stroke="none"></circle><circle r="7.631578947368421" cx="622.2222222222223" cy="80" fill="hsla(31, 74%, 59%, 1.00)" stroke="none"></circle><circle r="7.631578947368421" cx="711.1111111111112" cy="80" fill="hsla(31, 89%, 39%, 1.00)" stroke="none"></circle><circle r="7.631578947368421" cx="800.0000000000001" cy="80" fill="hsla(31, 74%, 59%, 1.00)" stroke="none"></circle><circle r="7.631578947368421" cx="0" cy="160" fill="hsla(31, 89%, 39%, 1.00)" stroke="none"></circle><circle r="7.631578947368421" cx="88.88888888888889" cy="160" fill="hsla(31, 74%, 59%, 1.00)" stroke="none"></circle><circle r="7.631578947368421" cx="177.77777777777777" cy="160" fill="hsla(31, 89%, 39%, 1.00)" stroke="none"></circle><circle r="7.631578947368421" cx="266.66666666666663" cy="160" fill="hsla(31, 74%, 59%, 1.00)" stroke="none"></circle><circle r="7.631578947368421" cx="355.55555555555554" cy="160" fill="hsla(31, 89%, 39%, 1.00)" stroke="none"></circle><circle r="7.631578947368421" cx="444.44444444444446" cy="160" fill="hsla(31, 74%, 59%, 1.00)" stroke="none"></circle><circle r="7.631578947368421" cx="533.3333333333334" cy="160" fill="hsla(31, 89%, 39%, 1.00)" stroke="none"></circle><circle r="7.631578947368421" cx="622.2222222222223" cy="160" fill="hsla(31, 74%, 59%, 1.00)" stroke="none"></circle><circle r="7.631578947368421" cx="711.1111111111112" cy="160" fill="hsla(31, 89%, 39%, 1.00)" stroke="none"></circle><circle r="7.631578947368421" cx="800.0000000000001" cy="160" fill="hsla(31, 74%, 59%, 1.00)" stroke="none"></circle><circle r="7.631578947368421" cx="0" cy="240" fill="hsla(31, 89%, 39%, 1.00)" stroke="none"></circle><circle r="7.631578947368421" cx="88.88888888888889" cy="240" fill="hsla(31, 74%, 59%, 1.00)" stroke="none"></circle><circle r="7.631578947368421" cx="177.77777777777777" cy="240" fill="hsla(31, 89%, 39%, 1.00)" stroke="none"></circle><circle r="7.631578947368421" cx="266.66666666666663" cy="240" fill="hsla(31, 74%, 59%, 1.00)" stroke="none"></circle><circle r="7.631578947368421" cx="355.55555555555554" cy="240" fill="hsla(31, 89%, 39%, 1.00)" stroke="none"></circle><circle r="7.631578947368421" cx="444.44444444444446" cy="240" fill="hsla(31, 74%, 59%, 1.00)" stroke="none"></circle><circle r="7.631578947368421" cx="533.3333333333334" cy="240" fill="hsla(31, 89%, 39%, 1.00)" stroke="none"></circle><circle r="7.631578947368421" cx="622.2222222222223" cy="240" fill="hsla(31, 74%, 59%, 1.00)" stroke="none"></circle><circle r="7.631578947368421" cx="711.1111111111112" cy="240" fill="hsla(31, 89%, 39%, 1.00)" stroke="none"></circle><circle r="7.631578947368421" cx="800.0000000000001" cy="240" fill="hsla(31, 74%, 59%, 1.00)" stroke="none"></circle><circle r="7.631578947368421" cx="0" cy="320" fill="hsla(31, 89%, 39%, 1.00)" stroke="none"></circle><circle r="7.631578947368421" cx="88.88888888888889" cy="320" fill="hsla(31, 74%, 59%, 1.00)" stroke="none"></circle><circle r="7.631578947368421" cx="177.77777777777777" cy="320" fill="hsla(31, 89%, 39%, 1.00)" stroke="none"></circle><circle r="7.631578947368421" cx="266.66666666666663" cy="320" fill="hsla(31, 74%, 59%, 1.00)" stroke="none"></circle><circle r="7.631578947368421" cx="355.55555555555554" cy="320" fill="hsla(31, 89%, 39%, 1.00)" stroke="none"></circle><circle r="7.631578947368421" cx="444.44444444444446" cy="320" fill="hsla(31, 74%, 59%, 1.00)" stroke="none"></circle><circle r="7.631578947368421" cx="533.3333333333334" cy="320" fill="hsla(31, 89%, 39%, 1.00)" stroke="none"></circle><circle r="7.631578947368421" cx="622.2222222222223" cy="320" fill="hsla(31, 74%, 59%, 1.00)" stroke="none"></circle><circle r="7.631578947368421" cx="711.1111111111112" cy="320" fill="hsla(31, 89%, 39%, 1.00)" stroke="none"></circle><circle r="7.631578947368421" cx="800.0000000000001" cy="320" fill="hsla(31, 74%, 59%, 1.00)" stroke="none"></circle><circle r="7.631578947368421" cx="0" cy="400" fill="hsla(31, 89%, 39%, 1.00)" stroke="none"></circle><circle r="7.631578947368421" cx="88.88888888888889" cy="400" fill="hsla(31, 74%, 59%, 1.00)" stroke="none"></circle><circle r="7.631578947368421" cx="177.77777777777777" cy="400" fill="hsla(31, 89%, 39%, 1.00)" stroke="none"></circle><circle r="7.631578947368421" cx="266.66666666666663" cy="400" fill="hsla(31, 74%, 59%, 1.00)" stroke="none"></circle><circle r="7.631578947368421" cx="355.55555555555554" cy="400" fill="hsla(31, 89%, 39%, 1.00)" stroke="none"></circle><circle r="7.631578947368421" cx="444.44444444444446" cy="400" fill="hsla(31, 74%, 59%, 1.00)" stroke="none"></circle><circle r="7.631578947368421" cx="533.3333333333334" cy="400" fill="hsla(31, 89%, 39%, 1.00)" stroke="none"></circle><circle r="7.631578947368421" cx="622.2222222222223" cy="400" fill="hsla(31, 74%, 59%, 1.00)" stroke="none"></circle><circle r="7.631578947368421" cx="711.1111111111112" cy="400" fill="hsla(31, 89%, 39%, 1.00)" stroke="none"></circle><circle r="7.631578947368421" cx="800.0000000000001" cy="400" fill="hsla(31, 74%, 59%, 1.00)" stroke="none"></circle><circle r="7.631578947368421" cx="0" cy="480" fill="hsla(31, 89%, 39%, 1.00)" stroke="none"></circle><circle r="7.631578947368421" cx="88.88888888888889" cy="480" fill="hsla(31, 74%, 59%, 1.00)" stroke="none"></circle><circle r="7.631578947368421" cx="177.77777777777777" cy="480" fill="hsla(31, 89%, 39%, 1.00)" stroke="none"></circle><circle r="7.631578947368421" cx="266.66666666666663" cy="480" fill="hsla(31, 74%, 59%, 1.00)" stroke="none"></circle><circle r="7.631578947368421" cx="355.55555555555554" cy="480" fill="hsla(31, 89%, 39%, 1.00)" stroke="none"></circle><circle r="7.631578947368421" cx="444.44444444444446" cy="480" fill="hsla(31, 74%, 59%, 1.00)" stroke="none"></circle><circle r="7.631578947368421" cx="533.3333333333334" cy="480" fill="hsla(31, 89%, 39%, 1.00)" stroke="none"></circle><circle r="7.631578947368421" cx="622.2222222222223" cy="480" fill="hsla(31, 74%, 59%, 1.00)" stroke="none"></circle><circle r="7.631578947368421" cx="711.1111111111112" cy="480" fill="hsla(31, 89%, 39%, 1.00)" stroke="none"></circle><circle r="7.631578947368421" cx="800.0000000000001" cy="480" fill="hsla(31, 74%, 59%, 1.00)" stroke="none"></circle><circle r="7.631578947368421" cx="0" cy="560" fill="hsla(31, 89%, 39%, 1.00)" stroke="none"></circle><circle r="7.631578947368421" cx="88.88888888888889" cy="560" fill="hsla(31, 74%, 59%, 1.00)" stroke="none"></circle><circle r="7.631578947368421" cx="177.77777777777777" cy="560" fill="hsla(31, 89%, 39%, 1.00)" stroke="none"></circle><circle r="7.631578947368421" cx="266.66666666666663" cy="560" fill="hsla(31, 74%, 59%, 1.00)" stroke="none"></circle><circle r="7.631578947368421" cx="355.55555555555554" cy="560" fill="hsla(31, 89%, 39%, 1.00)" stroke="none"></circle><circle r="7.631578947368421" cx="444.44444444444446" cy="560" fill="hsla(31, 74%, 59%, 1.00)" stroke="none"></circle><circle r="7.631578947368421" cx="533.3333333333334" cy="560" fill="hsla(31, 89%, 39%, 1.00)" stroke="none"></circle><circle r="7.631578947368421" cx="622.2222222222223" cy="560" fill="hsla(31, 74%, 59%, 1.00)" stroke="none"></circle><circle r="7.631578947368421" cx="711.1111111111112" cy="560" fill="hsla(31, 89%, 39%, 1.00)" stroke="none"></circle><circle r="7.631578947368421" cx="800.0000000000001" cy="560" fill="hsla(31, 74%, 59%, 1.00)" stroke="none"></circle><circle r="7.631578947368421" cx="0" cy="640" fill="hsla(31, 89%, 39%, 1.00)" stroke="none"></circle><circle r="7.631578947368421" cx="88.88888888888889" cy="640" fill="hsla(31, 74%, 59%, 1.00)" stroke="none"></circle><circle r="7.631578947368421" cx="177.77777777777777" cy="640" fill="hsla(31, 89%, 39%, 1.00)" stroke="none"></circle><circle r="7.631578947368421" cx="266.66666666666663" cy="640" fill="hsla(31, 74%, 59%, 1.00)" stroke="none"></circle><circle r="7.631578947368421" cx="355.55555555555554" cy="640" fill="hsla(31, 89%, 39%, 1.00)" stroke="none"></circle><circle r="7.631578947368421" cx="444.44444444444446" cy="640" fill="hsla(31, 74%, 59%, 1.00)" stroke="none"></circle><circle r="7.631578947368421" cx="533.3333333333334" cy="640" fill="hsla(31, 89%, 39%, 1.00)" stroke="none"></circle><circle r="7.631578947368421" cx="622.2222222222223" cy="640" fill="hsla(31, 74%, 59%, 1.00)" stroke="none"></circle><circle r="7.631578947368421" cx="711.1111111111112" cy="640" fill="hsla(31, 89%, 39%, 1.00)" stroke="none"></circle><circle r="7.631578947368421" cx="800.0000000000001" cy="640" fill="hsla(31, 74%, 59%, 1.00)" stroke="none"></circle><circle r="7.631578947368421" cx="0" cy="720" fill="hsla(31, 89%, 39%, 1.00)" stroke="none"></circle><circle r="7.631578947368421" cx="88.88888888888889" cy="720" fill="hsla(31, 74%, 59%, 1.00)" stroke="none"></circle><circle r="7.631578947368421" cx="177.77777777777777" cy="720" fill="hsla(31, 89%, 39%, 1.00)" stroke="none"></circle><circle r="7.631578947368421" cx="266.66666666666663" cy="720" fill="hsla(31, 74%, 59%, 1.00)" stroke="none"></circle><circle r="7.631578947368421" cx="355.55555555555554" cy="720" fill="hsla(31, 89%, 39%, 1.00)" stroke="none"></circle><circle r="7.631578947368421" cx="444.44444444444446" cy="720" fill="hsla(31, 74%, 59%, 1.00)" stroke="none"></circle><circle r="7.631578947368421" cx="533.3333333333334" cy="720" fill="hsla(31, 89%, 39%, 1.00)" stroke="none"></circle><circle r="7.631578947368421" cx="622.2222222222223" cy="720" fill="hsla(31, 74%, 59%, 1.00)" stroke="none"></circle><circle r="7.631578947368421" cx="711.1111111111112" cy="720" fill="hsla(31, 89%, 39%, 1.00)" stroke="none"></circle><circle r="7.631578947368421" cx="800.0000000000001" cy="720" fill="hsla(31, 74%, 59%, 1.00)" stroke="none"></circle><circle r="7.631578947368421" cx="0" cy="800" fill="hsla(31, 89%, 39%, 1.00)" stroke="none"></circle><circle r="7.631578947368421" cx="88.88888888888889" cy="800" fill="hsla(31, 74%, 59%, 1.00)" stroke="none"></circle><circle r="7.631578947368421" cx="177.77777777777777" cy="800" fill="hsla(31, 89%, 39%, 1.00)" stroke="none"></circle><circle r="7.631578947368421" cx="266.66666666666663" cy="800" fill="hsla(31, 74%, 59%, 1.00)" stroke="none"></circle><circle r="7.631578947368421" cx="355.55555555555554" cy="800" fill="hsla(31, 89%, 39%, 1.00)" stroke="none"></circle><circle r="7.631578947368421" cx="444.44444444444446" cy="800" fill="hsla(31, 74%, 59%, 1.00)" stroke="none"></circle><circle r="7.631578947368421" cx="533.3333333333334" cy="800" fill="hsla(31, 89%, 39%, 1.00)" stroke="none"></circle><circle r="7.631578947368421" cx="622.2222222222223" cy="800" fill="hsla(31, 74%, 59%, 1.00)" stroke="none"></circle><circle r="7.631578947368421" cx="711.1111111111112" cy="800" fill="hsla(31, 89%, 39%, 1.00)" stroke="none"></circle><circle r="7.631578947368421" cx="800.0000000000001" cy="800" fill="hsla(31, 74%, 59%, 1.00)" stroke="none"></circle></g></svg>