<svg xmlns="http://www.w3.org/2000/svg" version="1.1" xmlns:xlink="http://www.w3.org/1999/xlink" xmlns:svgjs="http://svgjs.dev/svgjs" viewBox="0 0 2400 800" class="custom-cursor-on-hover"><defs><linearGradient x1="50%" y1="0%" x2="50%" y2="100%" id="sssurf-grad"><stop stop-color="hsla(31, 78%, 48%, 1.00)" stop-opacity="1" offset="0%"></stop><stop stop-color="hsla(31, 43%, 72%, 1.00)" stop-opacity="1" offset="100%"></stop></linearGradient></defs><g fill="url(#sssurf-grad)" transform="matrix(1,0,0,1,0,-92.04751586914062)"><path d="M 0 304.0950150643178 Q 450 548.3816721176545 600 321.04081427393453 Q 1050 534.8505990816892 1200 321.07151131946074 Q 1650 583.4447701620613 1800 329.90628418831574 Q 2250 513.9218538776674 2400 321.1987348092716 L 2400 800 L 0 800 L 0 306.39373015085965 Z" transform="matrix(1,0,0,1,0,35)" opacity="0.05" class="custom-cursor-on-hover"></path><path d="M 0 304.0950150643178 Q 450 548.3816721176545 600 321.04081427393453 Q 1050 534.8505990816892 1200 321.07151131946074 Q 1650 583.4447701620613 1800 329.90628418831574 Q 2250 513.9218538776674 2400 321.1987348092716 L 2400 800 L 0 800 L 0 306.39373015085965 Z" transform="matrix(1,0,0,1,0,70)" opacity="0.21"></path><path d="M 0 304.0950150643178 Q 450 548.3816721176545 600 321.04081427393453 Q 1050 534.8505990816892 1200 321.07151131946074 Q 1650 583.4447701620613 1800 329.90628418831574 Q 2250 513.9218538776674 2400 321.1987348092716 L 2400 800 L 0 800 L 0 306.39373015085965 Z" transform="matrix(1,0,0,1,0,105)" opacity="0.37"></path><path d="M 0 304.0950150643178 Q 450 548.3816721176545 600 321.04081427393453 Q 1050 534.8505990816892 1200 321.07151131946074 Q 1650 583.4447701620613 1800 329.90628418831574 Q 2250 513.9218538776674 2400 321.1987348092716 L 2400 800 L 0 800 L 0 306.39373015085965 Z" transform="matrix(1,0,0,1,0,140)" opacity="0.53" class="custom-cursor-on-hover"></path><path d="M 0 304.0950150643178 Q 450 548.3816721176545 600 321.04081427393453 Q 1050 534.8505990816892 1200 321.07151131946074 Q 1650 583.4447701620613 1800 329.90628418831574 Q 2250 513.9218538776674 2400 321.1987348092716 L 2400 800 L 0 800 L 0 306.39373015085965 Z" transform="matrix(1,0,0,1,0,175)" opacity="0.68"></path><path d="M 0 304.0950150643178 Q 450 548.3816721176545 600 321.04081427393453 Q 1050 534.8505990816892 1200 321.07151131946074 Q 1650 583.4447701620613 1800 329.90628418831574 Q 2250 513.9218538776674 2400 321.1987348092716 L 2400 800 L 0 800 L 0 306.39373015085965 Z" transform="matrix(1,0,0,1,0,210)" opacity="0.84" class="custom-cursor-on-hover"></path><path d="M 0 304.0950150643178 Q 450 548.3816721176545 600 321.04081427393453 Q 1050 534.8505990816892 1200 321.07151131946074 Q 1650 583.4447701620613 1800 329.90628418831574 Q 2250 513.9218538776674 2400 321.1987348092716 L 2400 800 L 0 800 L 0 306.39373015085965 Z" transform="matrix(1,0,0,1,0,245)" opacity="1" class="custom-cursor-on-hover"></path></g></svg>