<svg xmlns="http://www.w3.org/2000/svg" xmlns:xlink="http://www.w3.org/1999/xlink" viewBox="0,0,256,256" width="50px" height="50px"><g fill="none" fill-rule="nonzero" stroke="none" stroke-width="none" stroke-linecap="none" stroke-linejoin="none" stroke-miterlimit="10" stroke-dasharray="" stroke-dashoffset="0" font-family="none" font-weight="none" font-size="none" text-anchor="none" style="mix-blend-mode: normal"><g transform="scale(2.56,2.56)"><path d="M50,12c-20.987,0 -38,17.013 -38,38c0,20.987 17.013,38 38,38c20.987,0 38,-17.013 38,-38c0,-20.987 -17.013,-38 -38,-38z" fill="#d8842a" stroke="none" stroke-width="1" stroke-linecap="butt" stroke-linejoin="miter"></path><path d="M78,13c-0.552,0 -1,0.448 -1,1c0,0.552 0.448,1 1,1c0.552,0 1,-0.448 1,-1c0,-0.552 -0.448,-1 -1,-1z" fill="#da9a38" stroke="none" stroke-width="1" stroke-linecap="butt" stroke-linejoin="miter"></path><path d="M84,12c-2.209,0 -4,1.791 -4,4c0,2.209 1.791,4 4,4c2.209,0 4,-1.791 4,-4c0,-2.209 -1.791,-4 -4,-4z" fill="#da9a38" stroke="none" stroke-width="1" stroke-linecap="butt" stroke-linejoin="miter"></path><path d="M14,24c-1.105,0 -2,0.895 -2,2c0,1.105 0.895,2 2,2c1.105,0 2,-0.895 2,-2c0,-1.105 -0.895,-2 -2,-2z" fill="#794004" stroke="none" stroke-width="1" stroke-linecap="butt" stroke-linejoin="miter"></path><path d="M78,75c-1.105,0 -2,0.895 -2,2c0,1.105 0.895,2 2,2c1.105,0 2,-0.895 2,-2c0,-1.105 -0.895,-2 -2,-2zM17,74c-2.209,0 -4,1.791 -4,4c0,2.209 1.791,4 4,4c2.209,0 4,-1.791 4,-4c0,-2.209 -1.791,-4 -4,-4z" fill="#fb8200" stroke="none" stroke-width="1" stroke-linecap="butt" stroke-linejoin="miter"></path><path d="M24,81c-1.105,0 -2,0.895 -2,2c0,1.105 0.895,2 2,2c1.105,0 2,-0.895 2,-2c0,-1.105 -0.895,-2 -2,-2z" fill="#794004" stroke="none" stroke-width="1" stroke-linecap="butt" stroke-linejoin="miter"></path><path d="M66.483,76.034c-1.371,0 -2.483,1.112 -2.483,2.483c0,1.371 1.112,2.483 2.483,2.483c1.371,0 2.483,-1.112 2.483,-2.483c0,-1.371 -1.112,-2.483 -2.483,-2.483zM16,47c-0.552,0 -1,0.448 -1,1c0,0.552 0.448,1 1,1c0.552,0 1,-0.448 1,-1c0,-0.552 -0.448,-1 -1,-1z" fill="#ffffff" stroke="none" stroke-width="1" stroke-linecap="butt" stroke-linejoin="miter"></path><path d="M86,30c-0.552,0 -1,0.448 -1,1c0,0.552 0.448,1 1,1c0.552,0 1,-0.448 1,-1c0,-0.552 -0.448,-1 -1,-1z" fill="#da9a38" stroke="none" stroke-width="1" stroke-linecap="butt" stroke-linejoin="miter"></path><path d="M80,64c-1.105,0 -2,0.895 -2,2c0,1.105 0.895,2 2,2c1.105,0 2,-0.895 2,-2c0,-1.105 -0.895,-2 -2,-2z" fill="#ffffff" stroke="none" stroke-width="1" stroke-linecap="butt" stroke-linejoin="miter"></path><path d="M67.267,61.303l-9.02,-22.96c2.44,-0.241 5.877,-1.367 7.653,-2.187l-2.733,-9.84c0,0 -4.92,2.187 -13.667,2.187c-8.747,0 -13.667,-2.187 -13.667,-2.187l-2.733,9.84c1.777,0.82 5.213,1.945 7.653,2.187l-9.02,22.96h10.113l8.2,-21.32l4.373,10.933h-8.61l3.69,10.387z" fill="#fdfcef" stroke="none" stroke-width="1" stroke-linecap="butt" stroke-linejoin="miter"></path><path d="M67.267,61.303l-9.02,-22.96c2.44,-0.241 5.877,-1.367 7.653,-2.187l-2.733,-9.84c0,0 -4.92,2.187 -13.667,2.187c-8.747,0 -13.667,-2.187 -13.667,-2.187l-2.733,9.84c1.777,0.82 5.213,1.945 7.653,2.187l-9.02,22.96h10.113l8.2,-21.32l4.373,10.933h-8.61l3.69,10.387z" fill="none" stroke="#2a1601" stroke-width="1.4" stroke-linecap="round" stroke-linejoin="round"></path><path d="M56.279,30.286c-4.439,0.607 -11.264,0.889 -18.832,-1.136" fill="none" stroke="#2a1601" stroke-width="0.5" stroke-linecap="round" stroke-linejoin="round"></path><path d="M63.167,34.814l-1.618,-5.606c0,0 -1.117,0.355 -3.069,0.722" fill="none" stroke="#2a1601" stroke-width="0.5" stroke-linecap="round" stroke-linejoin="round"></path><path d="M32.39,36.375l4.127,12.354l4.373,-10.25z" fill="#2a1601" stroke="none" stroke-width="1" stroke-linecap="butt" stroke-linejoin="miter"></path><path d="M66.577,36.527l-4.373,12.026l-4.373,-10.25z" fill="#2a1601" stroke="none" stroke-width="1" stroke-linecap="butt" stroke-linejoin="miter"></path><path d="M67.907,61.575l-5.287,12.711h-15.307l-0.82,-2.05l-0.956,2.323h-10.114l-4.334,-12.869l10.484,0.159l4.237,-9.84l3.554,9.294z" fill="#2a1601" stroke="none" stroke-width="1" stroke-linecap="butt" stroke-linejoin="miter"></path><path d="M50.047,39.982l4.373,10.934h-8.747z" fill="#2a1601" stroke="none" stroke-width="1" stroke-linecap="butt" stroke-linejoin="miter"></path><path d="M57.07,42.032l-1.01,-2.596" fill="none" stroke="#2a1601" stroke-width="0.5" stroke-linecap="round" stroke-linejoin="round"></path><path d="M63.714,59.116l-5.687,-14.624" fill="none" stroke="#2a1601" stroke-width="0.5" stroke-linecap="round" stroke-linejoin="round"></path></g></g></svg>